<svg xmlns="http://www.w3.org/2000/svg" xmlns:xlink="http://www.w3.org/1999/xlink" width="36" height="36" viewBox="0 0 36 36">
  <defs>
    <clipPath id="clip-Artboard_1">
      <rect width="36" height="36"/>
    </clipPath>
  </defs>
  <g id="Artboard_1" data-name="Artboard – 1" clip-path="url(#clip-Artboard_1)">
    <g id="social-linkedin-logo">
      <path id="Path_1" data-name="Path 1" d="M18,0A18,18,0,1,0,36,18,17.985,17.985,0,0,0,18,0Zm0,33.212A15.194,15.194,0,1,1,33.212,18,15.183,15.183,0,0,1,18,33.212Z" fill="rgba(35,30,30,0.2)"/>
      <g id="Group_2" data-name="Group 2" transform="translate(9 9)">
        <g id="Group_1" data-name="Group 1">
          <path id="Path_2" data-name="Path 2" d="M25.5,43.5h3.388V29.982H25.5ZM39.018,29.982A6.2,6.2,0,0,0,34.5,32.241V29.982H31.112V43.5H34.5V35.629a2.878,2.878,0,0,1,3.388-2.259c1.447.106,2.188,1.976,2.259,2.259V43.5H43.5V34.182A4.209,4.209,0,0,0,39.018,29.982ZM27.194,25.5A1.694,1.694,0,0,0,25.5,27.194a1.694,1.694,0,1,0,3.388,0A1.694,1.694,0,0,0,27.194,25.5Z" transform="translate(-25.5 -25.5)" fill="rgba(35,30,30,0.2)"/>
        </g>
      </g>
    </g>
  </g>
</svg>
